<?xml version="1.0" encoding="UTF-8" standalone="no"?>
<svg
   viewBox="0 0 16 16">
  <path
     style="fill:#dbdbdf;"
     d="M 2.63,6.06 L 2.68,6.65 Q 3.23,5.94 4.15,5.94 Q 5.1,5.94 5.49,6.8 Q 6.03,5.94 7.04,5.94 Q 8.71,5.94 8.75,8.25 V 12.4 H 7.09 V 8.35 Q 7.09,7.8 6.94,7.57 Q 6.78,7.33 6.42,7.33 Q 5.96,7.33 5.73,7.9 L 5.74,8.1 V 12.4 H 4.08 V 8.36 Q 4.08,7.82 3.94,7.58 Q 3.79,7.33 3.42,7.33 Q 2.99,7.33 2.74,7.79 V 12.4 H 1.08 V 6.06 Z" />
  <path
     style="fill:#dbdbdf;"
     d="M 14.9,9.44 Q 14.9,11 14.4,11.7 Q 13.9,12.5 12.9,12.5 Q 12.1,12.5 11.6,11.8 L 11.5,12.4 H 9.98 V 3.4 H 11.6 V 6.58 Q 12.1,5.94 12.9,5.94 Q 13.9,5.94 14.4,6.71 Q 14.9,7.47 14.9,8.95 Z M 13.3,9.02 Q 13.3,8.02 13.1,7.68 Q 12.9,7.33 12.4,7.33 Q 11.9,7.33 11.6,7.81 V 10.7 Q 11.9,11.1 12.4,11.1 Q 12.9,11.1 13.1,10.8 Q 13.3,10.5 13.3,9.62 Z" />
</svg>
