<svg version="1.1" viewBox="0 0 24 24" xmlns="http://www.w3.org/2000/svg">
 <g transform="matrix(1.954,0,0,1.954,-11.05,-12.13)">
  <rect x="6.197" y="9.798" width="3.567" height="1.716" style="fill:#ffc400;stroke-width:.053;stroke:#fccd8e"/>
  <circle cx="16.53" cy="10.67" r=".8703" style="fill:#ffc400;stroke-width:.053;stroke:#fccd8e"/>
  <circle cx="16.53" cy="14.03" r=".8703" style="fill-opacity:.9981;fill:#ffffff;stroke-width:.053;stroke:#fccd8e"/>
  <path transform="scale(.2646)" d="m48.04 37.04a9.596 9.596 0 00-9.6 9.6 9.596 9.596 0 002.83 6.8l13.57-13.57a9.596 9.596 0 00-6.8-2.83z" style="fill:#ffc400;stroke-width:.2003;stroke:#fccd8e"/>
  <path d="m12.72 14.89a2.539 2.539 0 002.54-2.54 2.539 2.539 0 00-.75-1.8l-3.59 3.59a2.539 2.539 0 001.8.75z" style="fill-opacity:.9981;fill:#ffffff;stroke-width:.053;stroke:#fccd8e"/>
  <rect x="7.194" y="11.52" width="2.571" height="3.345" style="fill-opacity:.9981;fill:#ffffff;stroke-width:.053;stroke:#fccd8e"/>
 </g>
</svg>
