<svg version="1.1" viewBox="0 0 24 24" xmlns="http://www.w3.org/2000/svg" style="stroke-width:0;">
 <path d="m19.35 1h-14.67v1.826h14.67zm-14.67 22h14.67v-1.87h-14.67zm14.67-18.349h-14.67c-1.01 0-1.83.819-1.83 1.826v11.093c0 .91.82 1.85 1.83 1.85h14.67c1.03 0 1.8-.94 1.8-1.85v-11.093c0-1.007-.77-1.826-1.8-1.826zm-7.33 2.575c1.1 0 2.09.912 2.09 2.083 0 .931-.99 1.851-2.09 1.851s-2.1-.92-2.1-1.851c0-1.171 1-2.083 2.1-2.083zm4.62 9.434h-9.2v-.92c0-1.84 3.02-2.76 4.58-2.76 1.57 0 4.62.92 4.62 2.76z" style="fill:#000000;opacity:.54"/>
</svg>
