<svg xmlns="http://www.w3.org/2000/svg" viewBox="0 0 72 47.9" height="48" width="72"><g transform="translate(0,-1010)"/><path d="M 24.8 21.1 L 24.8 27.8 L 36.1 27.8 C 35.6 30.5 32.5 36.3 24.8 36.3 C 18 36.3 12.5 30.5 12.5 23.8 C 12.5 17 18 11.3 24.8 11.3 C 28.4 11.3 31.1 13 32.5 14.3 L 37.9 9.14 C 34.7 5.9 30.2 3.97 24.8 3.97 C 13.8 3.97 4.96 13 4.96 23.8 C 4.96 34.6 13.8 43.5 24.8 43.5 C 36.1 43.5 43.7 35.4 43.7 24.2 C 43.7 22.9 43.7 22 43.3 21.1 L 24.8 21.1 L 24.8 21.1 Z" style="fill:#666666"/><path d="M 67.1 21.1 L 61.7 21.1 L 61.7 15.2 L 55.8 15.2 L 55.8 21.1 L 50.4 21.1 L 50.4 26.5 L 55.8 26.5 L 55.8 32.3 L 61.7 32.3 L 61.7 26.5 L 67.1 26.5" style="fill:#666666"/></svg>