<svg xmlns="http://www.w3.org/2000/svg" width="48" height="48" viewBox="0 0 48 47.9"><g transform="translate(0,-1010)"/><g transform="matrix(1.25,0,0,-1.25,24,4.11)"><path style="fill:#1b1817;fill-opacity:1;fill-rule:evenodd;stroke:none" d="M 0 0 C -9 0 -16.3 -7.29 -16.3 -16.3 C -16.3 -23.5 -11.6 -29.6 -5.15 -31.7 C -4.33 -31.9 -4.04 -31.4 -4.04 -31 C -4.04 -30.6 -4.05 -29.6 -4.06 -28.2 C -8.59 -29.2 -9.55 -26 -9.55 -26 C -10.3 -24.1 -11.4 -23.6 -11.4 -23.6 C -12.8 -22.6 -11.2 -22.6 -11.2 -22.6 C -9.61 -22.8 -8.75 -24.3 -8.75 -24.3 C -7.29 -26.8 -4.93 -26.1 -4.01 -25.7 C -3.86 -24.6 -3.44 -23.9 -2.97 -23.5 C -6.59 -23.1 -10.4 -21.7 -10.4 -15.4 C -10.4 -13.7 -9.76 -12.2 -8.72 -11.1 C -8.88 -10.7 -9.44 -9 -8.56 -6.76 C -8.56 -6.76 -7.19 -6.32 -4.08 -8.43 C -2.78 -8.07 -1.38 -7.88 0 -7.88 C 1.38 -7.88 2.78 -8.07 4.08 -8.43 C 7.19 -6.32 8.56 -6.76 8.56 -6.76 C 9.44 -9 8.89 -10.7 8.72 -11.1 C 9.76 -12.2 10.4 -13.7 10.4 -15.4 C 10.4 -21.7 6.58 -23.1 2.95 -23.5 C 3.54 -24 4.06 -25 4.06 -26.5 C 4.06 -28.7 4.04 -30.4 4.04 -31 C 4.04 -31.4 4.33 -31.9 5.16 -31.7 C 11.6 -29.6 16.3 -23.5 16.3 -16.3 C 16.3 -7.29 9 0 0 0"/></g></svg>