<?xml version="1.0" encoding="UTF-8" standalone="no"?>
<svg
   xmlns:dc="http://purl.org/dc/elements/1.1/"
   xmlns:cc="http://creativecommons.org/ns#"
   xmlns:rdf="http://www.w3.org/1999/02/22-rdf-syntax-ns#"
   xmlns:svg="http://www.w3.org/2000/svg"
   xmlns="http://www.w3.org/2000/svg"
   xmlns:sodipodi="http://sodipodi.sourceforge.net/DTD/sodipodi-0.dtd"
   xmlns:inkscape="http://www.inkscape.org/namespaces/inkscape"
   version="1.1"
   id="svg2"
   viewBox="0 0 72 47.9"
   height="48"
   width="72"
   inkscape:version="0.91 r13725"
   sodipodi:docname="ic_gplus.svg">
  <sodipodi:namedview
     pagecolor="#ffffff"
     bordercolor="#666666"
     borderopacity="1"
     objecttolerance="10"
     gridtolerance="10"
     guidetolerance="10"
     inkscape:pageopacity="0"
     inkscape:pageshadow="2"
     inkscape:window-width="1920"
     inkscape:window-height="1027"
     id="namedview19"
     showgrid="false"
     inkscape:zoom="4.04"
     inkscape:cx="5.2"
     inkscape:cy="24"
     inkscape:window-x="-8"
     inkscape:window-y="-8"
     inkscape:window-maximized="1"
     inkscape:current-layer="svg2" />
  <defs
     id="defs4">
    <filter
       x="-0.5"
       y="-0.5"
       width="2"
       height="2"
       filterUnits="objectBoundingBox"
       id="filter-1">
      <feOffset
         dx="0"
         dy="2"
         in="SourceAlpha"
         result="shadowOffsetOuter1"
         id="feOffset7" />
      <feGaussianBlur
         stdDeviation="1"
         in="shadowOffsetOuter1"
         result="shadowBlurOuter1"
         id="feGaussianBlur9" />
      <feColorMatrix
         values="0 0 0 0 0   0 0 0 0 0   0 0 0 0 0  0 0 0 0.168 0"
         in="shadowBlurOuter1"
         type="matrix"
         result="shadowMatrixOuter1"
         id="feColorMatrix11" />
      <feOffset
         dx="0"
         dy="0"
         in="SourceAlpha"
         result="shadowOffsetOuter2"
         id="feOffset13" />
      <feGaussianBlur
         stdDeviation="1"
         in="shadowOffsetOuter2"
         result="shadowBlurOuter2"
         id="feGaussianBlur15" />
      <feColorMatrix
         values="0 0 0 0 0   0 0 0 0 0   0 0 0 0 0  0 0 0 0.084 0"
         in="shadowBlurOuter2"
         type="matrix"
         result="shadowMatrixOuter2"
         id="feColorMatrix17" />
      <feMerge
         id="feMerge19">
        <feMergeNode
           in="shadowMatrixOuter1"
           id="feMergeNode21" />
        <feMergeNode
           in="shadowMatrixOuter2"
           id="feMergeNode23" />
        <feMergeNode
           in="SourceGraphic"
           id="feMergeNode25" />
      </feMerge>
    </filter>
  </defs>
  <metadata
     id="metadata7">
    <rdf:RDF>
      <cc:Work
         rdf:about="">
        <dc:format>image/svg+xml</dc:format>
        <dc:type
           rdf:resource="http://purl.org/dc/dcmitype/StillImage" />
        <dc:title></dc:title>
      </cc:Work>
    </rdf:RDF>
  </metadata>
  <path
     id="path31"
     d="M 24.8,21.1 L 24.8,27.8 L 36.1,27.8 C 35.6,30.5 32.5,36.3 24.8,36.3 C 18,36.3 12.5,30.5 12.5,23.8 C 12.5,17 18,11.3 24.8,11.3 C 28.4,11.3 31.1,13 32.5,14.3 L 37.9,9.14 C 34.7,5.9 30.2,3.97 24.8,3.97 C 13.8,3.97 4.96,13 4.96,23.8 C 4.96,34.6 13.8,43.5 24.8,43.5 C 36.1,43.5 43.7,35.4 43.7,24.2 C 43.7,22.9 43.7,22 43.3,21.1 L 24.8,21.1 L 24.8,21.1 Z"
     style="fill:#666666" />
  <path
     id="path39"
     d="M 67.1,21.1 L 61.7,21.1 L 61.7,15.2 L 55.8,15.2 L 55.8,21.1 L 50.4,21.1 L 50.4,26.5 L 55.8,26.5 L 55.8,32.3 L 61.7,32.3 L 61.7,26.5 L 67.1,26.5"
     style="fill:#666666" />
</svg>
