<svg version="1.1" viewBox="0 0 24 24" xmlns="http://www.w3.org/2000/svg" style="stroke-width:0">
 <path d="m17.6 9.791 1.84-3.18c.16-.31 0-.69-.26-.85-.29-.15-.65-.06-.83.22l-1.88 3.24c-2.86-1.21-6.08-1.21-8.94 0l-1.88-3.24c-.19-.29-.58-.38-.87-.2-.28.18-.37.54-.22.83l1.84 3.18c-3.1 1.769-5.12 4.959-5.4 8.519h22c-.28-3.56-2.3-6.75-5.4-8.519zm-10.6 5.769c-.69 0-1.25-.56-1.25-1.25s.56-1.25 1.25-1.25 1.25.56 1.25 1.25-.56 1.25-1.25 1.25zm10 0c-.69 0-1.25-.56-1.25-1.25s.56-1.25 1.25-1.25 1.25.56 1.25 1.25-.56 1.25-1.25 1.25z"/>
</svg>
