<svg version="1.1" viewBox="0 0 24 24" xmlns="http://www.w3.org/2000/svg" style="stroke-width:0;">
 <path d="m11.21 1.001h3.61v16.649c-1.86.35-3.21.5-4.68.5-4.392 0-6.68-1.99-6.68-5.8 0-3.668 2.429-6.051 6.19-6.051.58 0 1.03.04 1.57.187v-5.485zm0 8.381c-.42-.14-.77-.187-1.211-.187-1.822 0-2.872 1.125-2.872 3.075 0 1.93 1.004 2.97 2.85 2.97.393 0 .723 0 1.233-.1z"/>
 <path d="m20.54 6.555v8.345c0 2.87-.21 4.24-.84 5.43-.59 1.15-1.36 1.87-2.96 2.67l-3.32-1.58c1.58-.75 2.35-1.4 2.84-2.41.52-1.03.68-2.22.68-5.35v-7.105zm-3.6-5.535h3.6v3.691h-3.6z"/>
</svg>
