<svg version="1.1" viewBox="0 0 24 24" xmlns="http://www.w3.org/2000/svg" style="stroke-width:0;">
 <path d="m12 23c-.3 0-.59-.1-.85-.23l-2.687-1.59c-.401-.22-.206-.3-.07-.35.536-.19.643-.23 1.216-.55.06-.1.139 0 .2 0l2.061 1.22c.1.1.19.1.26 0l8.05-4.65c.1-.1.12-.13.12-.22v-9.277c0-.09-.1-.178-.12-.223l-8.05-4.644c-.1-.06-.18-.06-.25 0l-8.056 4.644c-.078.057-.129.131-.129.223v9.297c0 .1.05.17.127.21l2.209 1.28c1.198.6 1.93-.1 1.93-.81v-9.188c0-.126.105-.229.234-.229h1.022c.127 0 .234.103.234.229v9.188c0 1.6-.871 2.51-2.386 2.51-.466 0-.833 0-1.857-.51l-2.112-1.21c-.523-.3-.845-.86-.845-1.47v-9.297c0-.607.322-1.173.845-1.47l8.054-4.667c.51-.2858 1.19-.2858 1.7 0l8.06 4.667c.52.303.84.863.84 1.47v9.297c0 .61-.32 1.17-.84 1.47l-8.06 4.65c-.26.16-.55.23-.85.23"/>
 <path d="m14.48 16.6c-3.53 0-4.27-1.62-4.27-2.98 0-.13.1-.23.23-.23h1.04c.12 0 .22.1.24.2.15 1.06.62 1.6 2.76 1.6 1.69 0 2.41-.39 2.41-1.29 0-.52-.2-.9-2.84-1.16-2.21-.22-3.57-.71-3.57-2.47 0-1.631 1.37-2.597 3.67-2.597 2.58 0 3.86.898 4.02 2.817 0 .1 0 .13-.1.18-.1.1-.11.1-.17.1h-1.05c-.1 0-.2-.1-.22-.18-.25-1.114-.86-1.469-2.52-1.469-1.85 0-2.07.641-2.07 1.129 0 .59.26.76 2.76 1.09 2.48.33 3.66.79 3.66 2.53 0 1.75-1.47 2.76-4.02 2.76"/>
</svg>
