<svg version="1.1" viewBox="0 0 24 24" xmlns="http://www.w3.org/2000/svg" style="stroke-width:0">
 <path d="m11.92 1.004c-5.582 0-5.234 2.434-5.234 2.434v2.524h5.324v.757h-7.433s-3.574-.407-3.574 5.251c0 5.67 3.118 5.46 3.118 5.46h1.862v-2.62s-.102-3.14 3.068-3.14h5.289s2.97.1 2.97-2.888v-4.843s.44-2.935-5.39-2.935zm-2.937 1.697c.53 0 .958.43.958.963s-.428.964-.958.964-.958-.431-.958-.964.428-.963.958-.963z"/>
 <path d="m12.07 23c5.6 0 5.24-2.42 5.24-2.42v-2.52h-5.34v-.77h7.45s3.59.41 3.59-5.26c0-5.662-3.13-5.461-3.13-5.461h-1.85v2.634s.1 3.127-3.07 3.127h-5.296s-2.97 0-2.97 2.88v4.87s-.45 2.92 5.376 2.92zm2.95-1.7c-.54 0-.96-.42-.96-.96 0-.52.42-.96.96-.96s.95.44.95.96c0 .54-.41.96-.95.96z" style="fill-opacity:.659;"/>
</svg>
