<svg version="1" xmlns="http://www.w3.org/2000/svg" width="21.333" height="21.333" viewBox="0 0 16.000000 16.000000"><path d="M0 8v8h16V0H0v8zm11.625-3.778V5.69l.088-.06c.312-.222.678-.325 1.13-.325 1.288 0 2.029.747 2.27 2.278.075.485.075 2.01 0 2.488-.122.772-.35 1.29-.738 1.681-.36.36-.688.519-1.231.59-.51.07-1.038-.043-1.422-.305l-.19-.132v.122c0 .234.04.222-.738.222h-.7v-9.5h1.531v1.472zm-7.253 1.14c.284.063.55.216.781.444l.197.2.147-.14c.431-.422 1.072-.622 1.744-.553.15.018.34.05.418.075.541.165.947.565 1.15 1.13.188.52.191.56.191 3.266v2.466H7.5v-2.244c0-1.331-.013-2.35-.031-2.506a1.382 1.382 0 0 0-.119-.438.459.459 0 0 0-.253-.259c-.213-.106-.538-.119-.738-.025-.168.075-.371.31-.459.531l-.072.175-.01 2.382-.005 2.384H4.25V9.847c0-2.26-.003-2.416-.06-2.59-.078-.257-.171-.376-.359-.463a1.054 1.054 0 0 0-.769-.01.893.893 0 0 0-.409.379c-.056.112-.06.215-.06 2.603v2.484h-1.53V5.406h.716c.785 0 .753-.006.753.19v.091l.131-.08c.447-.285 1.107-.379 1.71-.245z"/><path d="M12.24 6.762a.997.997 0 0 0-.49.404l-.125.184v2.984l.097.144c.219.331.497.475.906.469.444-.006.697-.188.85-.597.138-.372.163-.613.163-1.522 0-.894-.028-1.153-.153-1.503-.091-.25-.204-.39-.4-.497-.141-.078-.207-.094-.447-.1-.188-.006-.322.003-.4.035z"/></svg>