<?xml version="1.0" encoding="UTF-8" standalone="no"?>
<svg
   xmlns:dc="http://purl.org/dc/elements/1.1/"
   xmlns:cc="http://creativecommons.org/ns#"
   xmlns:rdf="http://www.w3.org/1999/02/22-rdf-syntax-ns#"
   xmlns:svg="http://www.w3.org/2000/svg"
   xmlns="http://www.w3.org/2000/svg"
   xmlns:sodipodi="http://sodipodi.sourceforge.net/DTD/sodipodi-0.dtd"
   xmlns:inkscape="http://www.inkscape.org/namespaces/inkscape"
   width="64"
   height="64"
   viewBox="0 0 60.2 60"
   id="svg2"
   version="1.1"
   inkscape:version="0.92.1 r15371"
   sodipodi:docname="commons_anim.svg"
   inkscape:export-filename="C:\Users\Michael\AndroidStudioProjects\TheyWorkForYou\twfy-res\square\feature.png"
   inkscape:export-xdpi="90"
   inkscape:export-ydpi="90">
  <metadata
     id="metadata10">
    <rdf:RDF>
      <cc:Work
         rdf:about="">
        <dc:format>image/svg+xml</dc:format>
        <dc:type
           rdf:resource="http://purl.org/dc/dcmitype/StillImage" />
        <dc:title></dc:title>
      </cc:Work>
    </rdf:RDF>
  </metadata>
  <defs
     id="defs8" />
  <sodipodi:namedview
     pagecolor="#ffffff"
     bordercolor="#666666"
     borderopacity="1"
     objecttolerance="10"
     gridtolerance="10"
     guidetolerance="10"
     inkscape:pageopacity="0"
     inkscape:pageshadow="2"
     inkscape:window-width="958"
     inkscape:window-height="1018"
     id="namedview6"
     showgrid="false"
     inkscape:zoom="6.18"
     inkscape:cx="32.2"
     inkscape:cy="46.3"
     inkscape:window-x="953"
     inkscape:window-y="0"
     inkscape:window-maximized="0"
     inkscape:current-layer="svg2">
    <inkscape:grid
       type="xygrid"
       id="grid3842"
       empspacing="1"
       visible="true"
       enabled="true"
       snapvisiblegridlinesonly="true"
       dotted="true"
       originx="0"
       originy="0"
       spacingx="1"
       spacingy="1" />
  </sodipodi:namedview>
  <g id="person">
  <path
     id="body"
     d="M 30.1,26.8 C 23.9,26.8 11.5,29.9 11.5,36.1 V 40.7 H 48.7 V 36.1 C 48.7,29.9 36.3,26.8 30.1,26.8 Z"
     inkscape:connector-curvature="0" />
  <path
     inkscape:connector-curvature="0"
     d="M 30.1,22.2 C 35.3,22.2 39.3,18 39.3,12.8 C 39.3,7.72 35.3,3.57 30.1,3.57 C 24.9,3.57 20.9,7.72 20.9,12.8 C 20.9,18 24.9,22.2 30.1,22.2 Z"
     id="head"
     style="fill:#ececec;stroke-width:0.12" />
     </g>
  <g
     id="tie2">
    <path
       style="fill:#11437d;fill-opacity:1;stroke:none;stroke-width:0.186"
       d="M 27.3,33.1 L 26.3,53.1 L 30.1,56.4 L 34.2,53.1 L 33.1,33.1 Z"
       id="rect3902-6-6"
       inkscape:connector-curvature="0" />
    <path
       inkscape:connector-curvature="0"
       style="fill:#11437d;fill-opacity:1;stroke-width:0.186"
       id="path4-3"
       d="M 30.1,26.8 C 29.4,26.8 28.4,26.8 27.3,27 V 31.7 H 33.1 V 27 C 32,26.8 31.1,26.8 30.1,26.8 Z" />
  </g>
  <g
     id="tie3">
    <path
       style="fill:#11437d;fill-opacity:1;stroke:none;stroke-width:0.186"
       d="M 37.5,33.1 L 36.5,53.1 L 40.3,56.4 L 44.4,53.1 L 43.3,33.1 Z"
       id="rect3902-6-6-9"
       inkscape:connector-curvature="0" />
    <path
       inkscape:connector-curvature="0"
       style="fill:#11437d;fill-opacity:1;stroke-width:0.186"
       id="path4-3-0"
       d="M 40.3,26.8 C 39.6,26.8 38.6,26.8 37.5,27 V 31.7 H 43.3 V 27 C 42.2,26.8 41.3,26.8 40.3,26.8 Z" />
  </g>
  <g
     id="tie1">
    <path
       style="fill:#11437d;fill-opacity:1;stroke:none;stroke-width:0.186"
       d="M 17.1,33.1 L 16.1,53.1 L 19.9,56.4 L 24,53.1 L 22.9,33.1 Z"
       id="rect3902-6-6-8"
       inkscape:connector-curvature="0" />
    <path
       inkscape:connector-curvature="0"
       style="fill:#11437d;fill-opacity:1;stroke-width:0.186"
       id="path4-3-8"
       d="M 19.9,26.8 C 19.2,26.8 18.2,26.8 17.1,27 V 31.7 H 22.9 V 27 C 21.8,26.8 20.9,26.8 19.9,26.8 Z" />
  </g>
  <path
     style="fill:#000000;stroke-width:0.62"
     inkscape:connector-curvature="0"
     d="M 34.7,13.6 C 34.8,13.4 34.8,13.1 34.8,13 C 34.8,12.8 34.8,12.5 34.7,12.3 L 36,11.3 C 36.1,11.2 36.2,11.1 36.1,10.9 L 34.9,8.74 C 34.8,8.6 34.7,8.56 34.5,8.6 L 33,9.23 C 32.6,8.98 32.3,8.77 31.9,8.62 L 31.7,6.97 C 31.7,6.83 31.5,6.71 31.3,6.71 H 28.9 C 28.7,6.71 28.5,6.83 28.5,6.97 L 28.3,8.62 C 27.9,8.77 27.6,8.99 27.2,9.23 L 25.8,8.6 C 25.5,8.54 25.4,8.6 25.3,8.74 L 24.1,10.9 C 24,11.1 24.1,11.2 24.2,11.3 L 25.5,12.3 C 25.4,12.5 25.4,12.8 25.4,13 C 25.4,13.1 25.4,13.4 25.5,13.6 L 24.2,14.6 C 24.1,14.7 24,14.9 24.1,15 L 25.3,17.1 C 25.4,17.3 25.5,17.3 25.8,17.3 L 27.2,16.7 C 27.6,17 27.9,17.1 28.3,17.2 L 28.5,18.9 C 28.5,19 28.7,19.1 28.9,19.1 H 31.3 C 31.5,19.1 31.7,19 31.7,18.9 L 31.9,17.2 C 32.3,17.1 32.6,16.8 33,16.7 L 34.5,17.3 C 34.7,17.3 34.8,17.3 34.9,17.1 L 36.1,15 C 36.2,14.9 36.1,14.7 36,14.6 Z M 30.1,15.2 C 28.9,15.2 27.9,14.1 27.9,13 C 27.9,11.8 28.9,10.8 30.1,10.8 C 31.3,10.8 32.3,11.8 32.3,13 C 32.3,14.1 31.3,15.2 30.1,15.2 Z"
     id="cog" />
</svg>
