<?xml version="1.0" encoding="UTF-8" standalone="no"?>
<svg
   xmlns:dc="http://purl.org/dc/elements/1.1/"
   xmlns:cc="http://creativecommons.org/ns#"
   xmlns:rdf="http://www.w3.org/1999/02/22-rdf-syntax-ns#"
   xmlns:svg="http://www.w3.org/2000/svg"
   xmlns="http://www.w3.org/2000/svg"
   xmlns:sodipodi="http://sodipodi.sourceforge.net/DTD/sodipodi-0.dtd"
   xmlns:inkscape="http://www.inkscape.org/namespaces/inkscape"
   width="48"
   height="48"
   viewBox="0 0 48 47.9"
   id="svg2"
   version="1.1"
   sodipodi:docname="ic_chrome.svg"
   inkscape:version="0.92.3 (2405546, 2018-03-11)">
  <sodipodi:namedview
     pagecolor="#ffffff"
     bordercolor="#666666"
     borderopacity="1"
     objecttolerance="10"
     gridtolerance="10"
     guidetolerance="10"
     inkscape:pageopacity="0"
     inkscape:pageshadow="2"
     inkscape:window-width="1920"
     inkscape:window-height="1027"
     id="namedview5405"
     showgrid="false"
     inkscape:zoom="13.9"
     inkscape:cx="30.188811"
     inkscape:cy="17.894976"
     inkscape:window-x="-8"
     inkscape:window-y="-8"
     inkscape:window-maximized="1"
     inkscape:current-layer="svg2"
     showguides="false">
    <sodipodi:guide
       position="0,0"
       orientation="0,48"
       id="guide4508"
       inkscape:locked="false" />
    <sodipodi:guide
       position="48,0"
       orientation="-48,0"
       id="guide4510"
       inkscape:locked="false" />
    <sodipodi:guide
       position="48,47.9"
       orientation="0,-48"
       id="guide4512"
       inkscape:locked="false" />
    <sodipodi:guide
       position="0,47.9"
       orientation="48,0"
       id="guide4514"
       inkscape:locked="false" />
  </sodipodi:namedview>
  <defs
     id="defs4" />
  <metadata
     id="metadata7">
    <rdf:RDF>
      <cc:Work
         rdf:about="">
        <dc:format>image/svg+xml</dc:format>
        <dc:type
           rdf:resource="http://purl.org/dc/dcmitype/StillImage" />
        <dc:title />
      </cc:Work>
    </rdf:RDF>
  </metadata>
  <path
     style="fill:none;stroke:#000000;stroke-width:1;stroke-miterlimit:4;stroke-dasharray:none;stroke-opacity:1"
     d="M 44,24 C 44.492459,36.969868 30.322756,47.394304 18.089596,43.10673 5.5617617,39.741885 -0.23192508,23.130761 7.4932877,12.707151 14.410268,1.7288944 31.990314,1.106333 39.666538,11.567801 42.458004,15.066995 44.011136,19.524406 44,24 Z"
     id="circle4512"
     inkscape:connector-curvature="0" />
  <path
     style="fill:none;stroke:#000000;stroke-opacity:1"
     d="m 33,24 c 0.221607,5.836441 -6.15476,10.527437 -11.659682,8.598028 -5.637525,-1.51418 -8.244684,-8.989186 -4.768339,-13.67981 C 19.684621,13.978002 27.595641,13.69785 31.049942,18.40551 32.306102,19.980148 33.005011,21.985983 33,24 Z"
     id="circle4511"
     inkscape:connector-curvature="0" />
  <path
     id="path4518"
     style="fill:none;fill-rule:evenodd;stroke:#000000;stroke-width:1px;stroke-linecap:butt;stroke-linejoin:miter;stroke-opacity:1"
     d="m 24,15 c 5.958273,0 11.916547,0 17.87482,0 M 32,28.2 c -2.988057,5.267083 -5.976113,10.534165 -8.96417,15.801248 M 15.9,28.1 C 12.992098,23.109473 10.084196,18.118946 7.1762935,13.128419" />
  <path
     style="fill:none;fill-opacity:1;stroke:#000000;stroke-opacity:1"
     d="m 31,24 c 0.172361,4.539454 -4.787035,8.188006 -9.068641,6.687355 C 17.546617,29.50966 15.518826,23.695766 18.222651,20.047503 20.643594,16.205113 26.79661,15.987217 29.483288,19.64873 30.460301,20.873448 31.003898,22.433542 31,24 Z"
     id="circle4521"
     inkscape:connector-curvature="0" />
</svg>
