<?xml version="1.0" encoding="UTF-8" standalone="no"?>
<!-- Created with Inkscape (http://www.inkscape.org/) -->

<svg
   xmlns:dc="http://purl.org/dc/elements/1.1/"
   xmlns:cc="http://creativecommons.org/ns#"
   xmlns:rdf="http://www.w3.org/1999/02/22-rdf-syntax-ns#"
   xmlns:svg="http://www.w3.org/2000/svg"
   xmlns="http://www.w3.org/2000/svg"
   width="64"
   height="64"
   viewBox="0 0 16.933333 16.933333"
   version="1.1">

  <rect
     style="opacity:0.58600003;fill:#ffffff;fill-opacity:1;stroke:none;stroke-width:0.20179674;stroke-opacity:1"
     width="16.933332"
     height="16.933332"
     x="2.7838135e-07"
     y="2.7838135e-07" />
  <path
     d="m 7.2314971,12.511947 h 1.6229088 v 2.030636 H 7.2314971 Z m 1.5749415,-1.17521 H 7.2794649 v -1.231172 q 0,-0.8074572 0.2238496,-1.3271089 0.2238495,-0.51965 0.943366,-1.2071879 L 9.166197,6.8597463 Q 9.6218904,6.4360312 9.8217554,6.0602837 10.029616,5.6845362 10.029616,5.2927996 q 0,-0.7115218 -0.5276456,-1.1512263 -0.5196501,-0.4397045 -1.3830697,-0.4397045 -0.6315757,0 -1.3510921,0.2798119 -0.7115218,0.279812 -1.4870007,0.8154519 V 3.294143 Q 6.0323029,2.8384493 6.7997872,2.6145998 7.5752659,2.3907501 8.3987124,2.3907501 q 1.471012,0 2.3584156,0.7754788 0.895397,0.7754786 0.895397,2.0466243 0,0.6075916 -0.287806,1.1592209 -0.287806,0.5436347 -1.007323,1.2311726 L 9.6538674,8.2907846 Q 9.2781214,8.6665317 9.1182288,8.8823865 8.9663304,9.0902472 8.9023741,9.2901137 8.8544094,9.4580004 8.8304185,9.6978401 8.8064275,9.9376782 8.8064275,10.353399 Z"
     style="font-size:64px;fill:#000000;opacity:0.82300002;stroke-width:0.25582805" />
</svg>
