<?xml version="1.0" encoding="UTF-8" standalone="no"?>
<svg
   xmlns:dc="http://purl.org/dc/elements/1.1/"
   xmlns:cc="http://creativecommons.org/ns#"
   xmlns:rdf="http://www.w3.org/1999/02/22-rdf-syntax-ns#"
   xmlns:svg="http://www.w3.org/2000/svg"
   xmlns="http://www.w3.org/2000/svg"
   xmlns:sodipodi="http://sodipodi.sourceforge.net/DTD/sodipodi-0.dtd"
   xmlns:inkscape="http://www.inkscape.org/namespaces/inkscape"
   version="1.1"
   id="svg2"
   viewBox="0 0 56 47.9"
   height="48"
   width="56"
   inkscape:version="0.91 r13725"
   sodipodi:docname="ic_twitter.svg">
  <sodipodi:namedview
     pagecolor="#ffffff"
     bordercolor="#666666"
     borderopacity="1"
     objecttolerance="10"
     gridtolerance="10"
     guidetolerance="10"
     inkscape:pageopacity="0"
     inkscape:pageshadow="2"
     inkscape:window-width="1920"
     inkscape:window-height="1027"
     id="namedview9"
     showgrid="false"
     inkscape:zoom="9.83"
     inkscape:cx="14.9"
     inkscape:cy="24"
     inkscape:window-x="-8"
     inkscape:window-y="-8"
     inkscape:window-maximized="1"
     inkscape:current-layer="svg2" />
  <path
     style="fill:#1a1a1a"
     class="st0"
     d="M 18.7,44 C 37.2,44 47.7,29 47.7,15 C 47.7,15 47.7,14 47.7,14 C 49.7,13 51.7,11 52.7,8.95 C 50.7,9.95 48.7,9.95 46.7,9.95 C 48.7,8.95 50.7,6.95 51.7,4.95 C 49.7,5.95 46.7,6.95 44.7,6.95 C 42.7,4.95 40.2,3.95 37.4,3.95 C 31.7,3.95 27.2,8.95 27.2,14 C 27.2,15 27.4,16 27.6,16 C 19.1,16 11.6,12 6.7,5.95 C 5.8,6.95 5.3,8.95 5.3,11 C 5.3,14 7.1,18 9.8,19 C 8.2,19 6.6,19 5.3,18 C 5.3,18 5.3,18 5.3,18 C 5.3,23 8.8,27 13.4,28 C 12.4,28 11.6,28 10.7,28 C 10.1,28 9.4,28 8.8,28 C 10.1,32 13.8,35 18.3,35 C 14.8,38 10.4,40 5.7,40 C 4.9,40 4.1,40 3.3,39 C 7.7,42 13,44 18.7,44"
     id="path4689"
     inkscape:connector-curvature="0" />
  <defs
     id="defs4" />
  <metadata
     id="metadata7">
    <rdf:RDF>
      <cc:Work
         rdf:about="">
        <dc:format>image/svg+xml</dc:format>
        <dc:type
           rdf:resource="http://purl.org/dc/dcmitype/StillImage" />
        <dc:title></dc:title>
      </cc:Work>
    </rdf:RDF>
  </metadata>
  <g
     transform="translate(0,-1010)"
     id="layer1" />
  <style
     type="text/css"
     id="style4685">
	.st0{fill:#FFFFFF;}
</style>
</svg>
