<?xml version="1.0" standalone="no"?>
<!DOCTYPE svg PUBLIC "-//W3C//DTD SVG 20010904//EN"
 "http://www.w3.org/TR/2001/REC-SVG-20010904/DTD/svg10.dtd">
<svg version="1.0" xmlns="http://www.w3.org/2000/svg"
 width="16.000000pt" height="16.000000pt" viewBox="0 0 16.000000 16.000000"
 preserveAspectRatio="xMidYMid meet">
<metadata>
Created by potrace 1.11, written by Peter Selinger 2001-2013
</metadata>
<g transform="translate(0.000000,16.000000) scale(0.003125,-0.003125)"
fill="#000000" stroke="none">
<path d="M0 2560 l0 -2560 2560 0 2560 0 0 2560 0 2560 -2560 0 -2560 0 0
-2560z m3720 1209 l0 -470 28 19 c100 71 217 104 362 104 412 0 649 -239 726
-729 24 -155 24 -643 0 -796 -39 -247 -112 -413 -236 -538 -115 -115 -220
-166 -394 -189 -163 -22 -332 14 -455 98 l-61 42 0 -39 c0 -75 13 -71 -236
-71 l-224 0 0 1520 0 1520 245 0 245 0 0 -471z m-2321 -365 c91 -20 176 -69
250 -142 l63 -64 47 45 c138 135 343 199 558 177 48 -6 109 -16 134 -24 173
-53 303 -181 368 -362 60 -166 61 -179 61 -1045 l0 -789 -240 0 -240 0 0 718
c0 426 -4 752 -10 802 -7 56 -20 104 -38 140 -23 46 -35 59 -81 83 -68 34
-172 38 -236 8 -54 -24 -119 -99 -147 -170 l-23 -56 -3 -762 -2 -763 -250 0
-250 0 0 769 c0 723 -1 773 -19 829 -25 82 -55 120 -115 148 -68 32 -180 33
-246 3 -55 -25 -105 -71 -131 -121 -18 -36 -19 -69 -19 -833 l0 -795 -245 0
-245 0 0 1095 0 1095 229 0 c251 0 241 2 241 -61 l0 -29 42 26 c143 91 354
121 547 78z"/>
<path d="M3917 2956 c-63 -23 -115 -66 -157 -129 l-40 -59 0 -477 0 -478 31
-46 c70 -106 159 -152 290 -150 142 2 223 60 272 191 44 119 52 196 52 487 0
286 -9 369 -49 481 -29 80 -65 125 -128 159 -45 25 -66 30 -143 32 -60 2 -103
-1 -128 -11z"/>
</g>
</svg>
