<svg viewBox="0 0 215.994 215.994">
<path d="m 94.8045,35.000994 h 23.872 V 145.497 c -12.246,2.325 -21.237,3.255 -31.002,3.255 -29.142,0 -44.333,-13.174 -44.333,-38.443 0,-24.336006 16.122,-40.147006 41.078,-40.147006 3.875,0 6.82,0.311 10.386,1.239 v -36.4 z m 0,55.62 c -2.79,-0.929 -5.115,-1.239 -8.06,-1.239 -12.091,0 -19.067,7.441 -19.067,20.460006 0,12.713 6.666,19.688 18.912,19.688 2.634,0 4.805,-0.155 8.215,-0.618 z" style="fill:var(--text-primary)" />
<path d="M 156.6525,71.864994 V 127.206 c 0,19.065 -1.395,28.21 -5.58,36.117 -3.876,7.596 -8.992,12.399 -19.532,17.67 l -22.167,-10.541 c 10.541,-4.96 15.656,-9.297 18.911,-15.966 3.411,-6.819 4.497,-14.727 4.497,-35.498 V 71.864994 Z m -23.871,-36.737 h 23.871 v 24.493 h -23.871 z" style="fill:var(--text-primary)" />
</svg>