<svg
   xmlns:svg="http://www.w3.org/2000/svg"
   width="48"
   height="48"
   viewBox="0 0 48 48">
  <path
     d="M 24,3.95 C 12.7,3.95 3.46,13.1 3.46,24.5 C 3.46,33.6 9.39,41.3 17.5,43.9 C 18.5,44.2 18.9,43.6 18.9,43.1 C 18.9,42.6 18.8,41.3 18.8,39.6 C 13.2,40.8 12,36.7 12,36.7 C 11,34.3 9.64,33.7 9.64,33.7 C 7.88,32.5 9.94,32.5 9.94,32.5 C 11.9,32.7 13,34.6 13,34.6 C 14.8,37.7 17.7,36.8 18.9,36.3 C 19.1,35 19.6,34.1 20.2,33.6 C 15.7,33.1 10.9,31.3 10.9,23.4 C 10.9,21.2 11.7,19.4 13,18 C 12.8,17.5 12.1,15.4 13.2,12.5 C 13.2,12.5 14.9,11.9 18.8,14.6 C 20.4,14.2 22.3,14 24,14 C 25.7,14 27.5,14.2 29.1,14.6 C 33,11.9 34.8,12.5 34.8,12.5 C 35.9,15.4 35.2,17.5 35,18 C 36.3,19.4 37.1,21.2 37.1,23.4 C 37.1,31.3 32.2,33.1 27.7,33.6 C 28.4,34.2 29.1,35.5 29.1,37.3 C 29.1,40.2 29.1,42.3 29.1,43.1 C 29.1,43.6 29.4,44.2 30.5,43.9 C 38.6,41.3 44.5,33.6 44.5,24.5 C 44.5,13.1 35.3,3.95 24,3.95"/>
</svg>
