<?xml version="1.0" encoding="UTF-8" standalone="no"?>
<svg
   xmlns:dc="http://purl.org/dc/elements/1.1/"
   xmlns:cc="http://creativecommons.org/ns#"
   xmlns:rdf="http://www.w3.org/1999/02/22-rdf-syntax-ns#"
   xmlns:svg="http://www.w3.org/2000/svg"
   xmlns="http://www.w3.org/2000/svg"
   xmlns:sodipodi="http://sodipodi.sourceforge.net/DTD/sodipodi-0.dtd"
   xmlns:inkscape="http://www.inkscape.org/namespaces/inkscape"
   version="1.0"
   width="20"
   height="20"
   viewBox="0 0 200 200"
   preserveAspectRatio="xMidYMid meet"
   id="svg6"
   sodipodi:docname="ic_reddit.svg"
   inkscape:version="0.92.5 (2060ec1f9f, 2020-04-08)">
  <metadata
     id="metadata12">
    <rdf:RDF>
      <cc:Work
         rdf:about="">
        <dc:format>image/svg+xml</dc:format>
        <dc:type
           rdf:resource="http://purl.org/dc/dcmitype/StillImage" />
        <dc:title></dc:title>
      </cc:Work>
    </rdf:RDF>
  </metadata>
  <defs
     id="defs10" />
  <sodipodi:namedview
     pagecolor="#ffffff"
     bordercolor="#666666"
     borderopacity="1"
     objecttolerance="10"
     gridtolerance="10"
     guidetolerance="10"
     inkscape:pageopacity="0"
     inkscape:pageshadow="2"
     inkscape:window-width="2560"
     inkscape:window-height="1361"
     id="namedview8"
     showgrid="false"
     inkscape:zoom="21.213483"
     inkscape:cx="5.1902787"
     inkscape:cy="0.18699134"
     inkscape:window-x="0"
     inkscape:window-y="1120"
     inkscape:window-maximized="1"
     inkscape:current-layer="svg6" />
  <rect
     style="opacity:0.64899998;fill:#000000;fill-opacity:1;stroke:none;stroke-width:10;stroke-opacity:1"
     id="rect4526"
     width="200"
     height="200"
     x="0"
     y="-5.3290705e-15" />
  <g
     id="g4"
     transform="matrix(0.14679937,0,0,0.16557933,26.330919,25.963389)"
     style="opacity:0.78200001;fill:#ffffff;fill-opacity:1;stroke:none">
    <path
       d="M 353,876 C 197,838 75,724 66,606 64,577 55,556 37,538 -11,490 -7,416 48,367 c 28,-25 83,-32 117,-14 26,13 31,13 60,-4 46,-27 136,-56 198,-64 l 54,-7 26,-126 c 15,-69 31,-130 36,-135 6,-6 45,-3 101,8 87,17 91,17 111,-1 49,-44 139,-4 139,61 0,50 -33,85 -81,85 -38,0 -61,-15 -84,-54 C 715,99 591,65 580,77 c -3,2 -14,49 -25,103 l -21,98 46,7 c 67,10 137,32 185,58 37,21 45,23 66,11 72,-40 169,19 169,103 0,30 -33,93 -50,93 -5,0 -10,17 -10,38 0,23 -12,64 -31,101 -47,93 -147,162 -277,190 -68,14 -213,13 -279,-3 z"
       id="path2"
       inkscape:connector-curvature="0"
       style="fill:#ffffff;fill-opacity:1" />
  </g>
</svg>
