<svg xmlns="http://www.w3.org/2000/svg" viewBox="0 0 56 47.9" height="48" width="56"><g transform="translate(0,-1010)"/><style type="text/css">.st0{fill:#FFFFFF;}</style><g style="fill:#1a1a1a" transform="matrix(0.197,0,0,0.197,-9,-6.07)"><path style="fill:#1a1a1a" class="st0" d="M 141 254 C 235 254 287 176 287 108 C 287 106 287 104 287 102 C 297 94.3 306 85.2 313 74.9 C 303 79 293 81.7 283 83 C 294 76.7 302 66.6 306 54.6 C 296 60.5 285 64.7 273 67 C 264 57 250 50.8 236 50.8 C 207 50.8 184 73.8 184 102 C 184 106 185 110 186 114 C 143 112 105 91.2 79.9 60.2 C 75.5 67.8 73 76.6 73 86 C 73 104 82.1 120 95.8 129 C 87.4 128 79.5 126 72.6 122 C 72.6 122 72.6 123 72.6 123 C 72.6 148 90.3 169 114 173 C 109 174 105 175 100 175 C 96.9 175 93.7 175 90.6 174 C 97.1 195 116 209 139 210 C 121 224 98.8 232 74.8 232 C 70.7 232 66.6 232 62.6 231 C 85.2 246 112 254 141 254"/></g></svg>