<svg version="1.1" viewBox="0 0 24 24" xmlns="http://www.w3.org/2000/svg" style="stroke-width:0;">
 <path d="m11.97 1.307c-6.031 0-10.97 4.884-10.97 11.023 0 4.8 3.151 8.86 7.502 10.31.588.21.749-.22.749-.48v-1.88c-3.046.65-3.685-1.49-3.685-1.49-.535-1.27-1.256-1.6-1.256-1.6-.961-.64.121-.64.121-.64 1.074.2 1.661 1.13 1.661 1.13.961 1.65 2.564 1.17 3.203.91.061-.75.374-1.23.695-1.46-2.457-.26-5.02-1.17-5.02-5.43 0-1.13.428-2.138 1.122-2.885-.101-.282-.482-1.392.101-2.942 0 0 .963-.321 3.046 1.126.851-.283 1.811-.424 2.721-.424.96 0 1.87.202 2.78.424 2.02-1.447 2.99-1.126 2.99-1.126.64 1.55.22 2.66.2 2.942.69.747 1.13 1.755 1.13 2.885 0 4.26-2.56 5.17-5.03 5.43.43.33.75.97.75 1.98v3.05c0 .26.22.58.81.48 4.26-1.45 7.41-5.51 7.41-10.31 0-6.139-4.9-11.023-10.94-11.023"/>
</svg>
