<?xml version="1.0" encoding="UTF-8" standalone="no"?>
<!-- Created with Inkscape (http://www.inkscape.org/) -->

<svg
   xmlns:dc="http://purl.org/dc/elements/1.1/"
   xmlns:cc="http://creativecommons.org/ns#"
   xmlns:rdf="http://www.w3.org/1999/02/22-rdf-syntax-ns#"
   xmlns:svg="http://www.w3.org/2000/svg"
   xmlns="http://www.w3.org/2000/svg"
   xmlns:sodipodi="http://sodipodi.sourceforge.net/DTD/sodipodi-0.dtd"
   xmlns:inkscape="http://www.inkscape.org/namespaces/inkscape"
   height="41.7"
   width="31.8"
   version="1.1"
   id="svg8"
   sodipodi:docname="ic_bitcoin.svg"
   inkscape:version="0.92.2 (5c3e80d, 2017-08-06)">
  <metadata
     id="metadata14">
    <rdf:RDF>
      <cc:Work
         rdf:about="">
        <dc:format>image/svg+xml</dc:format>
        <dc:type
           rdf:resource="http://purl.org/dc/dcmitype/StillImage" />
        <dc:title></dc:title>
      </cc:Work>
    </rdf:RDF>
  </metadata>
  <defs
     id="defs12" />
  <sodipodi:namedview
     pagecolor="#ffffff"
     bordercolor="#666666"
     borderopacity="1"
     objecttolerance="10"
     gridtolerance="10"
     guidetolerance="10"
     inkscape:pageopacity="0"
     inkscape:pageshadow="2"
     inkscape:window-width="1920"
     inkscape:window-height="1027"
     id="namedview10"
     showgrid="false"
     inkscape:zoom="7.37"
     inkscape:cx="27.3"
     inkscape:cy="22.5"
     inkscape:window-x="-8"
     inkscape:window-y="-8"
     inkscape:window-maximized="1"
     inkscape:current-layer="svg8" />
  <path
     inkscape:connector-curvature="0"
     style="fill:none;stroke:#000000;stroke-opacity:1"
     id="path4"
     d="M 31.2,16.8 C 31.8,12.6 28.6,10.3 24.2,8.8 L 25.6,3 L 22.1,2.1 L 20.7,7.7 C 19.8,7.5 18.8,7.3 17.9,7.1 L 19.3,1.4 L 15.8,0.595 L 14.3,6.3 C 13.6,6.1 12.8,6 12.1,5.8 V 5.8 L 7.29,4.6 L 6.29,8.3 C 6.29,8.3 8.89,8.9 8.89,8.9 C 10.3,9.3 10.6,10.2 10.5,11 L 8.89,17.6 C 8.99,17.6 9.09,17.6 9.19,17.7 C 9.09,17.6 8.99,17.6 8.89,17.6 L 6.59,26.8 C 6.39,27.2 5.99,27.9 4.99,27.6 C 4.99,27.7 2.39,27 2.39,27 L 0.69,31 L 5.19,32.1 C 6.09,32.4 6.89,32.6 7.69,32.8 L 6.29,38.6 L 9.79,39.5 L 11.2,33.7 C 12.2,34 13.1,34.2 14,34.5 L 12.6,40.2 L 16.1,41.1 L 17.6,35.3 C 23.5,36.4 28.1,35.9 29.9,30.5 C 31.5,26.2 29.9,23.6 26.7,22 C 29,21.5 30.7,20 31.2,16.8 Z M 23.2,28.1 C 22.1,32.5 14.8,30.1 12.4,29.5 L 14.3,21.8 C 16.7,22.4 24.3,23.5 23.2,28.1 Z M 24.3,16.8 C 23.3,20.7 17.2,18.7 15.2,18.2 L 16.9,11.2 C 18.9,11.7 25.3,12.6 24.3,16.8 Z" />
</svg>
