<svg width="16" height="16" viewBox="0 0 16 16" version="1.1" xmlns="http://www.w3.org/2000/svg" xmlns:xlink="http://www.w3.org/1999/xlink" xmlns:figma="http://www.figma.com/figma/ns">
<title>Untitled</title>
<desc>Created using Figma</desc>
<g id="Canvas" transform="translate(3960 944)" figma:type="canvas">
<rect x="-3960" y="-944" width="16" height="16" fill="#E5E5E5"/>
<g id="Group" style="mix-blend-mode:normal;" figma:type="frame">
<g id="Rectangle 4" style="mix-blend-mode:normal;" figma:type="rounded-rectangle">
<use xlink:href="#path0_fill" transform="translate(-3960 -944)" fill="#222222" style="mix-blend-mode:normal;"/>
</g>
<g id="mb" style="mix-blend-mode:normal;" figma:type="text">
<use xlink:href="#path1_fill" transform="translate(-3960 -944)" fill="#DFDFDF" style="mix-blend-mode:normal;"/>
<mask id="mask0_outline_out">
<rect id="mask0_outline_inv" fill="white" x="1" y="2" width="15" height="11" transform="translate(-3960 -944)"/>
<use xlink:href="#path1_fill" fill="black" transform="translate(-3960 -944)"/>
</mask>
<g mask="url(#mask0_outline_out)">
<use xlink:href="#path2_stroke_2x" transform="translate(-3960 -944)" fill="#DFDFDF" style="mix-blend-mode:normal;"/>
</g>
</g>
</g>
</g>
<defs>
<path id="path0_fill" d="M 0 0L 16 0L 16 16L 0 16L 0 0Z"/>
<path id="path1_fill" d="M 2.27539 5.66016L 2.29883 6.24609C 2.68555 5.77734 3.19531 5.54297 3.82812 5.54297C 4.53516 5.54297 5.0293 5.84961 5.31055 6.46289C 5.70898 5.84961 6.26367 5.54297 6.97461 5.54297C 8.14258 5.54297 8.74023 6.27148 8.76758 7.72852L 8.76758 12L 7.73633 12L 7.73633 7.82812C 7.73633 7.36719 7.6543 7.02539 7.49023 6.80273C 7.32617 6.57617 7.04883 6.46289 6.6582 6.46289C 6.3457 6.46289 6.0918 6.58398 5.89648 6.82617C 5.70117 7.06836 5.58789 7.37695 5.55664 7.75195L 5.55664 12L 4.51367 12L 4.51367 7.78125C 4.50195 6.90234 4.14453 6.46289 3.44141 6.46289C 2.91797 6.46289 2.54883 6.72461 2.33398 7.24805L 2.33398 12L 1.30273 12L 1.30273 5.66016L 2.27539 5.66016ZM 14.9258 9.13477C 14.9258 10.123 14.748 10.8672 14.3926 11.3672C 14.0371 11.8672 13.5215 12.1172 12.8457 12.1172C 12.1738 12.1172 11.6699 11.8281 11.334 11.25L 11.2812 12L 10.3379 12L 10.3379 3L 11.3691 3L 11.3691 6.35742C 11.709 5.81445 12.1973 5.54297 12.834 5.54297C 13.5293 5.54297 14.0508 5.78906 14.3984 6.28125C 14.7461 6.77344 14.9219 7.51563 14.9258 8.50781L 14.9258 9.13477ZM 13.8945 8.54297C 13.8945 7.79297 13.7891 7.25977 13.5781 6.94336C 13.3711 6.62305 13.0332 6.46289 12.5645 6.46289C 12.0293 6.46289 11.6309 6.75195 11.3691 7.33008L 11.3691 10.3477C 11.627 10.918 12.0293 11.2031 12.5762 11.2031C 13.0449 11.2031 13.3809 11.0391 13.584 10.7109C 13.7871 10.3828 13.8906 9.87305 13.8945 9.18164L 13.8945 8.54297Z"/>
<path id="path2_stroke_2x" d="M 2.27539 5.66016L 2.52519 5.65016L 2.51559 5.41016L 2.27539 5.41016L 2.27539 5.66016ZM 2.29883 6.24609L 2.04903 6.25609L 2.07519 6.91002L 2.49167 6.40519L 2.29883 6.24609ZM 5.31055 6.46289L 5.0833 6.5671L 5.27268 6.98006L 5.52019 6.59909L 5.31055 6.46289ZM 8.76758 7.72852L 9.01762 7.72852L 9.01753 7.72382L 8.76758 7.72852ZM 8.76758 12L 8.76758 12.25L 9.01758 12.25L 9.01758 12L 8.76758 12ZM 7.73633 12L 7.48633 12L 7.48633 12.25L 7.73633 12.25L 7.73633 12ZM 7.49023 6.80273L 7.28774 6.94937L 7.28897 6.95103L 7.49023 6.80273ZM 5.55664 7.75195L 5.3075 7.73119L 5.30664 7.74155L 5.30664 7.75195L 5.55664 7.75195ZM 5.55664 12L 5.55664 12.25L 5.80664 12.25L 5.80664 12L 5.55664 12ZM 4.51367 12L 4.26367 12L 4.26367 12.25L 4.51367 12.25L 4.51367 12ZM 4.51367 7.78125L 4.76369 7.78125L 4.76365 7.77792L 4.51367 7.78125ZM 2.33398 7.24805L 2.10271 7.15312L 2.08398 7.19874L 2.08398 7.24805L 2.33398 7.24805ZM 2.33398 12L 2.33398 12.25L 2.58398 12.25L 2.58398 12L 2.33398 12ZM 1.30273 12L 1.05273 12L 1.05273 12.25L 1.30273 12.25L 1.30273 12ZM 1.30273 5.66016L 1.30273 5.41016L 1.05273 5.41016L 1.05273 5.66016L 1.30273 5.66016ZM 2.02559 5.67015L 2.04903 6.25609L 2.54863 6.2361L 2.52519 5.65016L 2.02559 5.67015ZM 2.49167 6.40519C 2.82868 5.99669 3.26638 5.79297 3.82812 5.79297L 3.82812 5.29297C 3.12424 5.29297 2.54241 5.558 2.10598 6.087L 2.49167 6.40519ZM 3.82812 5.79297C 4.44344 5.79297 4.84524 6.048 5.0833 6.5671L 5.53779 6.35868C 5.21335 5.65122 4.62687 5.29297 3.82812 5.29297L 3.82812 5.79297ZM 5.52019 6.59909C 5.87411 6.05432 6.3512 5.79297 6.97461 5.79297L 6.97461 5.29297C 6.17614 5.29297 5.54386 5.64489 5.10091 6.32669L 5.52019 6.59909ZM 6.97461 5.79297C 7.50335 5.79297 7.86539 5.95518 8.10555 6.24792C 8.35388 6.55062 8.50446 7.03187 8.51762 7.73321L 9.01753 7.72382C 9.00335 6.96813 8.84144 6.35661 8.49211 5.93079C 8.13461 5.49502 7.61384 5.29297 6.97461 5.29297L 6.97461 5.79297ZM 8.51758 7.72852L 8.51758 12L 9.01758 12L 9.01758 7.72852L 8.51758 7.72852ZM 8.76758 11.75L 7.73633 11.75L 7.73633 12.25L 8.76758 12.25L 8.76758 11.75ZM 7.98633 12L 7.98633 7.82812L 7.48633 7.82812L 7.48633 12L 7.98633 12ZM 7.98633 7.82812C 7.98633 7.34613 7.90213 6.9403 7.6915 6.65443L 7.28897 6.95103C 7.40646 7.11048 7.48633 7.38824 7.48633 7.82812L 7.98633 7.82812ZM 7.69272 6.65611C 7.46469 6.34121 7.0949 6.21289 6.6582 6.21289L 6.6582 6.71289C 7.00276 6.71289 7.18765 6.81113 7.28775 6.94936L 7.69272 6.65611ZM 6.6582 6.21289C 6.27049 6.21289 5.9449 6.36789 5.70188 6.66923L 6.09109 6.98311C 6.2387 6.80007 6.42092 6.71289 6.6582 6.71289L 6.6582 6.21289ZM 5.70188 6.66923C 5.48363 6.94517 5.34378 7.32301 5.3075 7.73119L 5.80578 7.77271C 5.832 7.4309 5.91872 7.19155 6.09109 6.98311L 5.70188 6.66923ZM 5.30664 7.75195L 5.30664 12L 5.80664 12L 5.80664 7.75195L 5.30664 7.75195ZM 5.55664 11.75L 4.51367 11.75L 4.51367 12.25L 5.55664 12.25L 5.55664 11.75ZM 4.76367 12L 4.76367 7.78125L 4.26367 7.78125L 4.26367 12L 4.76367 12ZM 4.76365 7.77792C 4.75743 7.31147 4.65991 6.91647 4.43077 6.63473C 4.19331 6.34278 3.84832 6.21289 3.44141 6.21289L 3.44141 6.71289C 3.73762 6.71289 3.9229 6.80273 4.04287 6.95023C 4.17114 7.10794 4.25819 7.37212 4.26369 7.78458L 4.76365 7.77792ZM 3.44141 6.21289C 3.14416 6.21543 2.84758 6.30332 2.62738 6.45524C 2.41265 6.61126 2.22377 6.8633 2.10271 7.15312L 2.56526 7.34297C 2.65904 7.10935 2.76215 6.96882 2.91657 6.86312C 3.0655 6.75333 3.21522 6.71035 3.44141 6.71289L 3.44141 6.21289ZM 2.08398 7.24805L 2.08398 12L 2.58398 12L 2.58398 7.24805L 2.08398 7.24805ZM 2.33398 11.75L 1.30273 11.75L 1.30273 12.25L 2.33398 12.25L 2.33398 11.75ZM 1.55273 12L 1.55273 5.66016L 1.05273 5.66016L 1.05273 12L 1.55273 12ZM 1.30273 5.91016L 2.27539 5.91016L 2.27539 5.41016L 1.30273 5.41016L 1.30273 5.91016ZM 14.3926 11.3672L 14.1888 11.2223L 14.1888 11.2223L 14.3926 11.3672ZM 11.334 11.25L 11.5501 11.1244L 11.1416 10.4214L 11.0846 11.2325L 11.334 11.25ZM 11.2812 12L 11.2812 12.25L 11.5143 12.25L 11.5306 12.0175L 11.2812 12ZM 10.3379 12L 10.0879 12L 10.0879 12.25L 10.3379 12.25L 10.3379 12ZM 10.3379 3L 10.3379 2.75L 10.0879 2.75L 10.0879 3L 10.3379 3ZM 11.3691 3L 11.6191 3L 11.6191 2.75L 11.3691 2.75L 11.3691 3ZM 11.3691 6.35742L 11.1191 6.35742L 11.1191 7.22806L 11.5811 6.49006L 11.3691 6.35742ZM 14.9258 8.50781L 15.1758 8.50781L 15.1758 8.50683L 14.9258 8.50781ZM 13.5781 6.94336L 13.3681 7.07908L 13.3701 7.08203L 13.5781 6.94336ZM 11.3691 7.33008L 11.1414 7.22698L 11.1191 7.27613L 11.1191 7.33008L 11.3691 7.33008ZM 11.3691 10.3477L 11.1191 10.3477L 11.1191 10.4015L 11.1413 10.4506L 11.3691 10.3477ZM 13.8945 9.18164L 14.1445 9.18305L 14.1445 9.18164L 13.8945 9.18164ZM 14.6758 9.13477C 14.6758 10.1002 14.5009 10.7834 14.1888 11.2223L 14.5963 11.512C 14.9952 10.951 15.1758 10.1459 15.1758 9.13477L 14.6758 9.13477ZM 14.1888 11.2223C 13.8855 11.6489 13.4501 11.8672 12.8457 11.8672L 12.8457 12.3672C 13.5928 12.3672 14.1887 12.0854 14.5963 11.512L 14.1888 11.2223ZM 12.8457 11.8672C 12.2624 11.8672 11.8411 11.6251 11.5501 11.1244L 11.1178 11.3756C 11.4988 12.0312 12.0853 12.3672 12.8457 12.3672L 12.8457 11.8672ZM 11.0846 11.2325L 11.0319 11.9825L 11.5306 12.0175L 11.5834 11.2675L 11.0846 11.2325ZM 11.2812 11.75L 10.3379 11.75L 10.3379 12.25L 11.2812 12.25L 11.2812 11.75ZM 10.5879 12L 10.5879 3L 10.0879 3L 10.0879 12L 10.5879 12ZM 10.3379 3.25L 11.3691 3.25L 11.3691 2.75L 10.3379 2.75L 10.3379 3.25ZM 11.1191 3L 11.1191 6.35742L 11.6191 6.35742L 11.6191 3L 11.1191 3ZM 11.5811 6.49006C 11.8755 6.01957 12.284 5.79297 12.834 5.79297L 12.834 5.29297C 12.1105 5.29297 11.5424 5.60934 11.1572 6.22479L 11.5811 6.49006ZM 12.834 5.79297C 13.4625 5.79297 13.9012 6.01056 14.1942 6.42548L 14.6026 6.13702C 14.2004 5.56757 13.5961 5.29297 12.834 5.29297L 12.834 5.79297ZM 14.1942 6.42548C 14.4987 6.8565 14.672 7.5378 14.6758 8.5088L 15.1758 8.50683C 15.1718 7.49345 14.9935 6.69038 14.6026 6.13702L 14.1942 6.42548ZM 14.6758 8.50781L 14.6758 9.13477L 15.1758 9.13477L 15.1758 8.50781L 14.6758 8.50781ZM 14.1445 8.54297C 14.1445 7.78354 14.0404 7.18606 13.7861 6.80468L 13.3701 7.08203C 13.5377 7.33347 13.6445 7.8024 13.6445 8.54297L 14.1445 8.54297ZM 13.7881 6.80765C 13.5241 6.39919 13.0958 6.21289 12.5645 6.21289L 12.5645 6.71289C 12.9706 6.71289 13.2181 6.8469 13.3682 7.07907L 13.7881 6.80765ZM 12.5645 6.21289C 11.9103 6.21289 11.4343 6.58004 11.1414 7.22698L 11.5969 7.43318C 11.8275 6.92387 12.1483 6.71289 12.5645 6.71289L 12.5645 6.21289ZM 11.1191 7.33008L 11.1191 10.3477L 11.6191 10.3477L 11.6191 7.33008L 11.1191 7.33008ZM 11.1413 10.4506C 11.4323 11.0942 11.9144 11.4531 12.5762 11.4531L 12.5762 10.9531C 12.1442 10.9531 11.8216 10.7417 11.5969 10.2447L 11.1413 10.4506ZM 12.5762 11.4531C 13.1099 11.4531 13.5376 11.2609 13.7966 10.8425L 13.3714 10.5793C 13.2242 10.8172 12.9799 10.9531 12.5762 10.9531L 12.5762 11.4531ZM 13.7966 10.8425C 14.0363 10.4552 14.1405 9.88902 14.1445 9.18305L 13.6445 9.18023C 13.6407 9.85707 13.5379 10.3105 13.3714 10.5793L 13.7966 10.8425ZM 14.1445 9.18164L 14.1445 8.54297L 13.6445 8.54297L 13.6445 9.18164L 14.1445 9.18164Z"/>
</defs>
</svg>
