<svg version="1.1" viewBox="0 0 24 24" xmlns="http://www.w3.org/2000/svg">
 <path d="m3.467 8.989.08.94q.876-1.131 2.34-1.131 1.512 0 2.133 1.372.86-1.372 2.47-1.372 2.66 0 2.72 3.682v6.6h-2.64v-6.44q0-.88-.24-1.24-.26-.39-.829-.39-.733 0-1.099.91l.02.32v6.84h-2.646v-6.42q0-.86-.223-1.25-.239-.4-.828-.4-.684 0-1.082.74v7.33h-2.643v-10.091z" style="fill:#dbdbdf;stroke-width:1.5919"/>
 <path d="m23 14.38q0 2.47-.8 3.58-.79 1.29-2.38 1.29-1.28 0-2.07-1.13l-.16.96h-2.42v-14.325h2.58v5.062q.79-1.019 2.07-1.019 1.59 0 2.38 1.222.8 1.21.8 3.58zm-2.55-.67q0-1.6-.32-2.14-.31-.56-1.11-.56t-1.27.76v4.6q.47.64 1.27.64t1.11-.48q.32-.48.32-1.88z" style="fill:#dbdbdf;stroke-width:1.5919"/>
</svg>
