<svg id="@@id" class="@@class" viewBox="0 0 31.8 41.7">
    <path d="M 31.2,16.8 C 31.8,12.6 28.6,10.3 24.2,8.8 L 25.6,3 L 22.1,2.1 L 20.7,7.7 C 19.8,7.5 18.8,7.3 17.9,7.1 L 19.3,1.4 L 15.8,0.595 L 14.3,6.3 C 13.6,6.1 12.8,6 12.1,5.8 V 5.8 L 7.29,4.6 L 6.29,8.3 C 6.29,8.3 8.89,8.9 8.89,8.9 C 10.3,9.3 10.6,10.2 10.5,11 L 8.89,17.6 C 8.99,17.6 9.09,17.6 9.19,17.7 C 9.09,17.6 8.99,17.6 8.89,17.6 L 6.59,26.8 C 6.39,27.2 5.99,27.9 4.99,27.6 C 4.99,27.7 2.39,27 2.39,27 L 0.69,31 L 5.19,32.1 C 6.09,32.4 6.89,32.6 7.69,32.8 L 6.29,38.6 L 9.79,39.5 L 11.2,33.7 C 12.2,34 13.1,34.2 14,34.5 L 12.6,40.2 L 16.1,41.1 L 17.6,35.3 C 23.5,36.4 28.1,35.9 29.9,30.5 C 31.5,26.2 29.9,23.6 26.7,22 C 29,21.5 30.7,20 31.2,16.8 Z M 23.2,28.1 C 22.1,32.5 14.8,30.1 12.4,29.5 L 14.3,21.8 C 16.7,22.4 24.3,23.5 23.2,28.1 Z M 24.3,16.8 C 23.3,20.7 17.2,18.7 15.2,18.2 L 16.9,11.2 C 18.9,11.7 25.3,12.6 24.3,16.8 Z"/>
</svg>