<svg id="@@id" class="@@class" viewBox="0 0 48 48">
    <path d="M 24 3.95 C 12.7 3.95 3.45 13.1 3.45 24.6 C 3.45 33.6 9.35 41.2 17.5 43.9 C 18.6 44.1 18.9 43.5 18.9 43 C 18.9 42.5 18.9 41.2 18.9 39.5 C 13.2 40.7 12 36.7 12 36.7 C 11 34.3 9.65 33.7 9.65 33.7 C 7.85 32.5 9.89 32.5 9.89 32.5 C 11.9 32.7 13 34.6 13 34.6 C 14.8 37.7 17.8 36.8 19 36.3 C 19.1 34.9 19.7 34 20.3 33.6 C 15.7 33.1 10.9 31.4 10.9 23.4 C 10.9 21.3 11.7 19.4 13 18 C 12.8 17.5 12.1 15.4 13.2 12.5 C 13.2 12.5 15 11.9 18.9 14.6 C 20.5 14.1 22.3 13.8 24 13.8 C 25.8 13.8 27.5 14.1 29.2 14.6 C 33 11.9 34.8 12.5 34.8 12.5 C 36 15.4 35.2 17.5 35 18 C 36.3 19.4 37.1 21.3 37.1 23.4 C 37.1 31.4 32.3 33.1 27.7 33.6 C 28.5 34.2 29.1 35.4 29.1 37.3 C 29.1 40.1 29.1 42.3 29.1 43 C 29.1 43.5 29.5 44.1 30.6 43.9 C 38.6 41.2 44.5 33.6 44.5 24.6 C 44.5 13.1 35.3 3.95 24 3.95"/>
</svg>